<svg width="15" height="15" viewBox="0 0 86 86" fill="none" xmlns="http://www.w3.org/2000/svg">
<mask id="path-1-outside-1_1_8" maskUnits="userSpaceOnUse" x="0" y="0" width="86" height="86" fill="black">
<rect fill="white" width="86" height="86"/>
<path fill-rule="evenodd" clip-rule="evenodd" d="M43 81C63.9868 81 81 63.9868 81 43C81 22.0132 63.9868 5 43 5C22.0132 5 5 22.0132 5 43C5 63.9868 22.0132 81 43 81ZM43 84C65.6437 84 84 65.6437 84 43C84 20.3563 65.6437 2 43 2C20.3563 2 2 20.3563 2 43C2 65.6437 20.3563 84 43 84Z"/>
</mask>
<path fill-rule="evenodd" clip-rule="evenodd" d="M43 81C63.9868 81 81 63.9868 81 43C81 22.0132 63.9868 5 43 5C22.0132 5 5 22.0132 5 43C5 63.9868 22.0132 81 43 81ZM43 84C65.6437 84 84 65.6437 84 43C84 20.3563 65.6437 2 43 2C20.3563 2 2 20.3563 2 43C2 65.6437 20.3563 84 43 84Z" fill="black"/>
<path d="M79 43C79 62.8823 62.8823 79 43 79V83C65.0914 83 83 65.0914 83 43H79ZM43 7C62.8823 7 79 23.1177 79 43H83C83 20.9086 65.0914 3 43 3V7ZM7 43C7 23.1177 23.1177 7 43 7V3C20.9086 3 3 20.9086 3 43H7ZM43 79C23.1177 79 7 62.8823 7 43H3C3 65.0914 20.9086 83 43 83V79ZM82 43C82 64.5391 64.5391 82 43 82V86C66.7482 86 86 66.7482 86 43H82ZM43 4C64.5391 4 82 21.4609 82 43H86C86 19.2518 66.7482 0 43 0V4ZM4 43C4 21.4609 21.4609 4 43 4V0C19.2518 0 0 19.2518 0 43H4ZM43 82C21.4609 82 4 64.5391 4 43H0C0 66.7482 19.2518 86 43 86V82Z" fill="#696cff" mask="url(#path-1-outside-1_1_8)"/>
<path d="M37.8636 67V32.0909H47.5455V67H37.8636ZM42.7273 27.5909C41.2879 27.5909 40.053 27.1136 39.0227 26.1591C38.0076 25.1894 37.5 24.0303 37.5 22.6818C37.5 21.3485 38.0076 20.2045 39.0227 19.25C40.053 18.2803 41.2879 17.7955 42.7273 17.7955C44.1667 17.7955 45.3939 18.2803 46.4091 19.25C47.4394 20.2045 47.9545 21.3485 47.9545 22.6818C47.9545 24.0303 47.4394 25.1894 46.4091 26.1591C45.3939 27.1136 44.1667 27.5909 42.7273 27.5909Z" fill="black"/>
</svg>
